<?xml version="1.0" standalone="no"?>
<!DOCTYPE svg PUBLIC "-//W3C//DTD SVG 20010904//EN"
 "http://www.w3.org/TR/2001/REC-SVG-20010904/DTD/svg10.dtd">
<svg version="1.0" xmlns="http://www.w3.org/2000/svg"
 width="4006.000000pt" height="4062.000000pt" viewBox="0 0 4006.000000 4062.000000"
 preserveAspectRatio="xMidYMid meet">

<g transform="translate(0.000000,4062.000000) scale(0.100000,-0.100000)"
fill="#000000" stroke="none">
<path d="M19628 39359 c-2415 -68 -4796 -589 -6993 -1531 -5368 -2303 -9326
-6960 -10749 -12648 -479 -1914 -660 -3878 -540 -5880 234 -3935 1661 -7664
4095 -10700 761 -950 1636 -1844 2564 -2621 2631 -2203 5850 -3651 9256 -4163
1016 -153 1890 -218 2934 -218 806 0 1408 33 2175 118 4550 505 8737 2622
11789 5959 915 1001 1736 2123 2403 3285 708 1233 1260 2503 1678 3860 770
2503 1017 5197 719 7855 -377 3369 -1641 6558 -3665 9245 -1936 2571 -4511
4597 -7479 5882 -1035 449 -2141 813 -3239 1067 -1615 374 -3266 538 -4948
490z m1212 -419 c2968 -113 5772 -896 8355 -2333 2089 -1162 3949 -2740 5444
-4616 1196 -1502 2157 -3194 2836 -4991 1088 -2883 1438 -5979 1019 -9028
-491 -3583 -2039 -6969 -4429 -9687 -358 -408 -909 -976 -1267 -1308 -977
-904 -1988 -1664 -3103 -2332 -2490 -1492 -5283 -2377 -8158 -2585 -518 -37
-745 -44 -1347 -44 -788 0 -1318 28 -2045 110 -4464 498 -8625 2627 -11638
5956 -2540 2807 -4165 6345 -4636 10093 -55 440 -92 847 -123 1375 -18 292
-18 1568 0 1860 31 528 69 954 123 1375 470 3710 2047 7183 4534 9980 2124
2389 4863 4198 7910 5222 1727 580 3469 894 5320 956 223 8 972 6 1205 -3z"/>
<path d="M18385 37828 c-236 -22 -431 -41 -433 -43 -1 -1 35 -506 80 -1121
l84 -1119 207 -3 c174 -2 207 0 207 12 0 8 -18 211 -40 451 -22 240 -40 441
-40 446 0 5 39 9 88 9 61 1 93 5 106 15 25 19 69 19 106 0 16 -8 57 -19 91
-24 51 -7 67 -13 86 -37 28 -34 27 -33 80 -79 45 -39 101 -121 153 -225 26
-54 68 -102 243 -277 l212 -213 248 0 c195 0 248 3 244 13 -22 57 -252 417
-311 486 -41 47 -105 130 -144 184 -100 138 -117 157 -144 157 -30 0 -97 43
-167 107 l-55 49 71 12 c130 22 232 82 299 175 21 29 54 75 75 102 116 154
160 364 105 498 -39 93 -87 166 -156 237 -82 84 -142 127 -194 141 -23 5 -62
19 -88 29 -91 39 -185 52 -388 55 -168 3 -254 -2 -625 -37z m855 -393 c16 -9
32 -26 36 -39 3 -14 16 -27 30 -30 43 -11 54 -52 54 -200 l0 -135 -42 -34
c-27 -22 -59 -37 -87 -42 -24 -4 -59 -18 -78 -31 -64 -43 -95 -47 -405 -51
l-298 -5 0 291 0 291 380 0 c321 0 386 -2 410 -15z"/>
<path d="M20526 37818 c-4 -29 -40 -512 -81 -1073 -41 -561 -77 -1044 -80
-1072 l-5 -53 210 0 c146 0 210 3 210 11 0 50 82 1464 85 1467 2 2 13 -13 24
-35 11 -21 195 -371 410 -778 l389 -740 250 -3 251 -2 5 52 c3 29 21 508 41
1063 19 556 37 1038 40 1073 l4 62 -209 0 c-116 0 -210 -1 -210 -3 0 -1 -18
-324 -40 -717 -22 -393 -40 -726 -40 -740 -1 -24 -1 -24 -15 -6 -8 10 -195
362 -416 782 l-401 764 -208 0 -209 0 -5 -52z"/>
<path d="M16274 37453 l-821 -165 62 -242 c296 -1146 518 -2001 520 -2004 2
-3 1657 409 1663 413 3 3 -77 328 -82 332 -1 2 -281 -53 -622 -121 -340 -68
-621 -120 -624 -115 -17 27 -162 561 -154 568 5 4 265 63 578 130 313 66 571
122 572 124 2 2 -77 409 -81 414 0 1 -262 -53 -580 -122 -319 -68 -581 -122
-583 -121 -6 6 -84 487 -80 491 2 3 263 59 579 127 315 67 576 123 578 125 3
2 -35 162 -70 296 -5 20 -15 37 -22 36 -7 -1 -382 -75 -833 -166z"/>
<path d="M23108 36502 c-365 -570 -663 -1038 -663 -1041 0 -3 94 -24 208 -47
l209 -41 160 241 c88 132 163 244 167 248 4 4 211 -48 461 -116 l455 -123 42
-244 c23 -134 42 -247 42 -250 1 -6 398 -169 411 -169 3 0 -69 541 -160 1201
-127 923 -169 1204 -180 1211 -8 5 -122 44 -252 87 l-237 79 -663 -1036z m878
-40 c19 -221 34 -406 32 -411 -2 -7 -555 144 -567 155 -2 2 106 169 240 370
l244 367 7 -39 c5 -21 24 -220 44 -442z"/>
<path d="M14036 36790 c-450 -181 -821 -332 -824 -335 -4 -3 31 -80 76 -170
77 -155 83 -164 104 -156 13 5 144 61 291 124 l268 116 15 -32 c8 -18 158
-427 333 -910 175 -483 321 -880 323 -882 4 -4 487 153 497 161 2 2 -164 413
-369 914 -208 509 -369 915 -364 919 5 4 140 56 299 116 160 59 305 114 323
121 l32 13 -82 166 c-46 91 -87 165 -93 164 -5 0 -378 -149 -829 -329z"/>
<path d="M25185 37108 c-10 -29 -75 -298 -75 -311 0 -9 112 -56 329 -136 l329
-123 -289 -866 c-159 -477 -288 -871 -286 -877 2 -5 95 -46 208 -91 l204 -82
26 81 c108 346 553 1743 556 1746 1 2 149 -51 329 -119 179 -67 329 -118 334
-114 9 11 86 402 80 407 -3 2 -387 113 -855 246 -467 133 -858 244 -868 247
-9 3 -19 -1 -22 -8z"/>
<path d="M27323 36313 c-273 -615 -877 -1993 -880 -2008 -3 -17 31 -41 203
-143 114 -67 208 -121 209 -120 7 10 914 2082 912 2083 -22 16 -410 245 -413
245 -3 0 -17 -26 -31 -57z"/>
<path d="M12458 36124 l-168 -84 330 -660 c182 -363 328 -660 326 -660 -3 0
-338 185 -745 411 l-740 411 -210 -84 -210 -84 536 -989 c294 -545 539 -994
544 -999 8 -9 390 135 412 154 5 5 -156 301 -358 660 -202 358 -365 653 -363
655 1 2 334 -199 738 -446 404 -247 737 -449 740 -449 14 0 415 248 413 256
-1 8 -1072 1986 -1076 1990 -1 1 -77 -36 -169 -82z"/>
<path d="M28712 35529 c-30 -5 -86 -22 -125 -38 -50 -20 -105 -32 -179 -39
-158 -17 -186 -32 -323 -174 -188 -195 -356 -434 -428 -608 -65 -157 -81 -237
-81 -405 -1 -137 2 -158 28 -244 77 -254 163 -391 398 -632 103 -106 103 -106
210 -148 173 -67 266 -84 438 -78 107 4 164 10 217 26 40 12 84 21 98 21 63 0
187 34 270 75 147 71 273 183 400 355 116 158 229 488 241 710 10 169 -38 439
-99 555 -43 82 -176 213 -317 314 -63 46 -147 106 -186 135 -40 29 -121 74
-180 100 -60 26 -120 56 -135 67 -22 15 -43 19 -111 18 -45 -1 -107 -5 -136
-10z m303 -460 c28 -11 78 -40 110 -67 33 -26 86 -63 118 -82 32 -19 80 -58
107 -86 63 -67 80 -123 80 -263 -1 -198 -35 -344 -105 -443 -22 -32 -82 -119
-134 -195 -52 -76 -114 -162 -139 -191 -47 -56 -132 -112 -171 -112 -13 0 -60
-11 -105 -25 -130 -39 -200 -47 -277 -30 -99 20 -134 43 -244 157 -114 116
-147 157 -199 243 -30 51 -36 69 -36 118 0 92 35 240 101 431 l61 175 111 108
c62 60 140 127 175 150 68 45 158 83 198 83 14 0 39 7 56 16 46 24 147 43 198
37 25 -3 68 -14 95 -24z"/>
<path d="M10293 34837 c-89 -67 -162 -125 -163 -129 0 -4 1221 -1884 1244
-1915 5 -7 411 245 411 255 0 13 -1317 1912 -1325 1911 -3 0 -78 -55 -167
-122z"/>
<path d="M30095 33421 c-410 -478 -745 -872 -745 -875 0 -12 322 -247 333
-243 7 2 212 241 457 530 245 289 446 522 448 518 1 -4 -52 -368 -118 -809
-66 -441 -120 -810 -120 -819 0 -11 80 -82 206 -182 173 -138 207 -162 219
-150 7 8 311 383 676 834 364 451 678 839 696 861 l33 41 -137 103 c-76 57
-152 114 -169 127 l-31 23 -452 -576 c-249 -316 -454 -574 -456 -572 -1 2 53
392 121 868 l124 865 -162 162 c-90 90 -166 163 -170 163 -4 0 -343 -391 -753
-869z"/>
<path d="M8845 33718 c-110 -88 -203 -163 -207 -167 -5 -4 48 -247 116 -541
68 -294 120 -536 117 -538 -3 -1 -222 70 -486 158 -264 88 -487 160 -495 160
-19 0 -426 -406 -414 -412 5 -3 341 -79 746 -169 l738 -163 331 -373 c182
-205 334 -373 338 -373 3 0 80 74 171 165 l165 165 -334 334 -333 333 -124
784 c-68 431 -125 787 -127 791 -1 3 -92 -66 -202 -154z"/>
<path d="M6639 31433 c-316 -383 -577 -702 -581 -709 -5 -8 39 -47 130 -115
75 -56 151 -113 167 -125 l31 -23 208 250 208 250 42 -34 c132 -107 1438
-1118 1448 -1122 8 -2 65 66 136 162 102 136 122 168 110 178 -7 7 -339 284
-738 615 -399 332 -729 607 -735 612 -6 5 87 105 240 258 137 137 247 251 245
253 -21 18 -330 247 -333 247 -2 0 -262 -314 -578 -697z"/>
<path d="M32095 31633 c-638 -228 -1162 -417 -1165 -420 -2 -2 70 -78 162
-170 l166 -165 246 82 c135 45 250 80 255 78 4 -2 137 -150 295 -330 l286
-328 -125 -249 -124 -250 165 -206 c91 -114 170 -203 174 -199 22 23 1079
2237 1073 2247 -12 20 -243 327 -246 326 -1 0 -524 -188 -1162 -416z m902
-100 c-46 -85 -482 -803 -487 -803 -8 0 -320 466 -320 478 0 6 785 328 808
332 2 0 1 -3 -1 -7z"/>
<path d="M33505 29927 c-500 -342 -910 -625 -910 -629 0 -11 826 -1328 833
-1327 4 0 80 37 169 82 l163 82 -330 495 c-182 272 -330 497 -330 501 0 3 353
228 785 500 431 271 785 498 785 502 0 12 -244 417 -250 416 -3 0 -414 -281
-915 -622z"/>
<path d="M5676 30093 c-68 -115 -121 -211 -118 -215 6 -6 1758 -1150 1873
-1224 l37 -23 125 209 126 210 -42 28 c-42 29 -1842 1202 -1864 1215 -8 5 -54
-64 -137 -200z"/>
<path d="M5193 29090 c-151 -74 -264 -184 -333 -325 -64 -130 -145 -315 -175
-395 -73 -203 -71 -379 6 -520 17 -30 42 -84 55 -120 76 -198 213 -372 398
-501 158 -111 474 -240 676 -275 141 -24 309 -16 415 21 259 90 445 238 544
434 27 53 69 135 93 183 25 47 53 117 62 153 23 92 39 272 33 377 -7 137 -63
236 -237 421 -56 59 -89 87 -100 84 -9 -2 -87 -57 -173 -122 l-157 -117 58
-72 c76 -93 85 -108 143 -239 55 -124 59 -162 34 -262 -24 -91 -62 -165 -108
-213 -56 -59 -148 -130 -225 -177 l-64 -38 -116 6 c-205 10 -293 46 -596 247
-209 138 -295 210 -347 291 l-31 49 7 113 c9 131 26 208 60 259 14 21 25 50
25 66 0 86 66 194 128 208 15 3 52 16 82 29 121 52 196 52 257 1 l29 -24 78
236 c44 131 81 243 84 250 3 9 -53 12 -259 12 l-264 0 -82 -40z"/>
<path d="M35505 27515 c-935 -335 -960 -346 -1091 -468 -78 -73 -154 -176
-154 -210 0 -11 -11 -35 -25 -53 -52 -68 -59 -104 -58 -304 0 -146 5 -206 21
-286 50 -246 100 -341 281 -527 124 -128 181 -173 239 -189 20 -6 50 -21 67
-34 43 -32 134 -54 228 -54 64 0 84 4 108 21 16 11 91 45 167 75 75 30 180 79
232 108 75 42 216 97 659 255 310 111 567 203 569 206 6 5 -145 394 -158 408
-4 5 -270 -104 -591 -241 -503 -215 -593 -250 -650 -256 -37 -3 -122 -22 -190
-41 -102 -29 -141 -35 -219 -35 l-95 0 -128 128 -127 127 0 175 c0 210 6 227
107 332 61 63 84 78 228 151 132 66 260 116 740 288 318 114 581 211 583 217
4 13 -153 406 -164 408 -5 2 -265 -89 -579 -201z"/>
<path d="M7690 26253 c-413 -919 -738 -1923 -933 -2878 -142 -694 -215 -1255
-267 -2060 -18 -267 -24 -1070 -11 -1380 52 -1234 244 -2356 601 -3515 571
-1855 1567 -3613 2881 -5085 1175 -1315 2586 -2387 4180 -3175 1667 -824 3449
-1286 5369 -1391 285 -16 1100 -16 1375 0 1963 111 3731 574 5427 1422 2147
1073 3960 2670 5297 4664 1271 1896 2039 4055 2256 6340 49 522 70 1394 46
1926 -81 1788 -451 3395 -1148 4994 l-79 180 -3207 3 -3207 2 0 -6735 0 -6735
-6075 0 -6075 0 0 6735 0 6735 -3205 0 -3204 0 -21 -47z"/>
<path d="M3636 25959 c-8 -23 -76 -373 -76 -390 0 -12 98 -45 410 -139 236
-71 410 -128 410 -135 0 -16 -237 -805 -244 -812 -3 -3 -186 49 -408 116 -222
67 -408 121 -413 121 -9 0 -179 -490 -172 -496 1 -1 499 -131 1107 -288 608
-158 1112 -289 1121 -291 13 -5 23 28 57 202 23 114 39 210 34 213 -4 4 -203
78 -444 165 -240 87 -442 161 -448 165 -8 5 23 124 111 416 67 225 123 410
124 412 2 2 200 -51 441 -116 242 -66 447 -122 457 -124 16 -2 32 31 102 204
70 176 80 208 66 212 -16 5 -2152 559 -2203 571 -19 5 -29 3 -32 -6z"/>
<path d="M35825 24973 c-583 -135 -1062 -247 -1065 -249 -8 -8 74 -406 85
-410 5 -2 322 70 703 160 l694 163 -616 -616 c-339 -339 -616 -623 -616 -631
0 -32 156 -405 171 -407 8 -2 496 108 1084 245 l1071 247 -41 204 c-22 113
-45 206 -50 207 -6 2 -340 -70 -742 -160 -403 -89 -733 -161 -733 -160 0 2
287 272 638 600 350 328 647 606 659 618 l22 21 -83 205 c-65 164 -86 205
-101 207 -11 1 -497 -109 -1080 -244z"/>
<path d="M3055 23466 c-2 -6 -21 -99 -43 -208 l-39 -196 26 -5 c14 -3 347 -40
739 -83 391 -43 712 -81 712 -84 0 -3 -368 -170 -818 -372 l-817 -367 -3 -210
-2 -211 22 -5 c32 -7 2187 -325 2204 -325 12 0 14 36 14 204 0 186 -2 205 -17
210 -10 2 -319 39 -688 82 -368 42 -673 80 -678 84 -4 3 343 172 770 374 428
203 779 369 781 371 5 4 85 415 81 418 -2 2 -422 65 -934 141 -511 75 -1015
149 -1118 165 -131 20 -190 25 -192 17z"/>
<path d="M36280 22644 c-607 -91 -1105 -166 -1106 -167 -1 -1 17 -96 39 -210
l42 -208 25 5 c14 3 518 78 1120 167 602 89 1096 163 1098 164 3 3 -58 322
-75 393 -3 12 -12 22 -22 21 -9 0 -513 -75 -1121 -165z"/>
<path d="M36458 21522 l-1118 -456 0 -252 0 -253 108 -34 c59 -18 581 -186
1159 -372 579 -186 1055 -337 1057 -334 2 2 -15 115 -37 250 l-41 246 -817
244 c-449 134 -816 249 -816 254 -1 6 366 156 813 335 l814 325 0 253 c0 138
-1 252 -2 251 -2 0 -506 -206 -1120 -457z"/>
<path d="M2810 20810 l0 -250 59 0 c69 0 1866 -66 2054 -75 l127 -7 0 250 0
250 -122 6 c-162 9 -1999 76 -2066 76 l-52 0 0 -250z"/>
<path d="M3815 19895 c-600 -90 -1090 -164 -1091 -164 -2 -3 83 -661 87 -664
2 -2 328 -54 724 -116 877 -138 841 -132 824 -141 -8 -5 -340 -135 -739 -290
-399 -155 -726 -283 -728 -285 -3 -3 79 -659 83 -663 3 -3 2155 234 2213 243
l32 6 0 250 0 249 -37 -6 c-189 -29 -1751 -238 -1746 -233 5 4 390 152 856
330 496 188 846 327 844 333 -2 6 -21 99 -42 208 -38 190 -40 196 -65 201 -14
3 -417 58 -897 123 -480 65 -869 121 -865 125 4 3 402 60 885 125 484 65 884
122 890 126 7 4 -3 71 -29 205 l-40 198 -34 2 c-19 1 -525 -72 -1125 -162z"/>
<path d="M35335 19458 c-19 -82 -244 -1633 -238 -1638 10 -9 401 -86 406 -80
2 3 41 282 86 619 45 338 83 617 85 618 5 5 567 -75 573 -81 3 -2 -32 -244
-77 -536 -45 -293 -78 -536 -73 -540 10 -9 401 -86 406 -80 2 3 40 263 85 579
45 316 83 575 85 577 5 5 482 -77 488 -84 5 -5 -121 -989 -155 -1209 l-5 -33
170 0 c128 0 169 3 169 13 0 6 54 372 120 812 66 440 119 809 118 820 -3 19
-62 26 -1098 142 -602 67 -1105 122 -1117 122 -15 1 -24 -6 -28 -21z"/>
<path d="M4250 17152 c-608 -135 -1106 -247 -1108 -248 -5 -3 76 -406 82 -412
4 -3 2233 486 2243 493 2 1 -16 95 -39 208 -33 167 -44 207 -57 206 -9 0 -513
-111 -1121 -247z"/>
<path d="M35003 17193 c-46 -114 -82 -207 -80 -208 1 -1 198 -55 437 -120 239
-64 446 -122 459 -127 23 -8 24 -11 18 -86 -4 -67 -11 -89 -53 -171 -40 -77
-56 -99 -92 -122 -24 -15 -57 -31 -73 -34 -16 -4 -34 -15 -39 -26 -6 -10 -24
-26 -40 -34 -63 -33 -297 -110 -574 -191 -159 -46 -291 -85 -293 -87 -8 -9
-164 -569 -160 -574 3 -3 142 40 309 95 167 55 344 113 393 127 111 33 157 56
215 107 25 22 72 54 105 70 33 17 74 41 92 54 17 13 34 24 37 24 3 0 6 -30 6
-67 0 -187 48 -385 106 -440 41 -38 166 -114 291 -177 l93 -46 180 0 180 0 68
41 c129 78 252 188 252 225 0 21 18 76 118 350 53 144 296 1035 285 1044 -8 7
-2132 580 -2149 580 -5 0 -46 -93 -91 -207z m1460 -624 c155 -44 283 -82 285
-84 6 -6 -78 -324 -99 -371 -26 -61 -59 -197 -59 -244 0 -35 -30 -85 -105
-177 l-27 -33 -118 0 -118 0 -42 35 c-23 19 -52 38 -65 41 -14 3 -26 16 -29
30 -4 14 -23 42 -42 64 -41 46 -41 46 -1 183 15 49 33 149 42 225 14 134 76
412 91 412 3 0 132 -36 287 -81z"/>
<path d="M4465 16197 c-588 -204 -1072 -372 -1074 -373 -8 -7 162 -414 173
-414 7 0 194 54 415 121 222 66 405 119 407 116 9 -9 247 -817 242 -822 -3 -3
-187 -60 -409 -126 -222 -67 -406 -123 -409 -125 -2 -3 33 -117 78 -254 l83
-249 122 43 c67 24 555 193 1083 376 l961 332 -80 202 c-44 110 -83 204 -86
208 -4 4 -211 -67 -460 -157 -250 -91 -455 -164 -456 -163 -12 13 -245 902
-238 908 4 4 207 61 451 128 244 66 445 122 448 124 7 8 -161 498 -171 497 -5
0 -491 -168 -1080 -372z"/>
<path d="M34633 15036 c-218 -50 -432 -249 -521 -486 -12 -30 -42 -107 -68
-170 -128 -317 -118 -279 -117 -435 1 -152 9 -204 51 -309 24 -61 37 -77 112
-143 46 -41 116 -93 155 -115 38 -23 88 -53 110 -68 53 -37 127 -58 228 -65
l82 -6 135 56 c74 31 152 68 173 82 75 52 282 294 346 406 18 30 98 120 194
215 l163 163 80 -3 c71 -3 79 -5 82 -24 2 -11 21 -43 44 -70 l40 -49 -5 -80
c-3 -49 -14 -107 -30 -150 -14 -38 -36 -101 -50 -138 -30 -82 -64 -120 -126
-144 -25 -9 -60 -27 -76 -39 -43 -32 -81 -45 -154 -52 l-63 -7 -81 -204 c-79
-197 -81 -203 -62 -217 62 -45 239 -66 348 -40 182 43 373 193 555 436 68 91
71 98 81 174 6 44 25 139 42 210 43 179 43 252 1 378 -17 54 -37 119 -42 145
-10 42 -25 62 -128 166 -64 65 -133 125 -152 133 -62 27 -164 28 -335 4 -153
-21 -163 -24 -225 -63 -84 -53 -245 -216 -290 -292 -19 -33 -79 -107 -133
-164 -96 -102 -157 -188 -157 -224 0 -18 -5 -21 -51 -31 -15 -3 -50 -22 -79
-41 -48 -32 -58 -35 -124 -35 -71 0 -71 1 -136 53 -39 32 -74 70 -88 97 -21
40 -23 55 -19 140 3 69 11 114 30 165 14 39 37 102 50 140 21 56 36 80 81 121
30 28 79 66 109 83 l54 31 170 0 169 0 83 207 c45 113 78 210 74 214 -5 5 -46
18 -93 29 -111 28 -346 36 -437 16z"/>
<path d="M5873 14129 c-74 -9 -220 -42 -231 -54 -3 -3 12 -97 34 -208 l40
-202 205 -3 205 -2 136 -138 c128 -129 137 -141 159 -207 40 -120 30 -238 -26
-305 -7 -8 -15 -34 -18 -57 -16 -128 -155 -270 -344 -349 -37 -16 -94 -44
-126 -62 -128 -74 -296 -119 -482 -129 l-111 -6 -100 81 c-113 91 -201 181
-226 233 -9 18 -26 69 -38 112 l-22 77 20 43 c11 23 23 65 27 94 9 71 53 157
113 224 l51 56 -168 167 -167 167 -91 -95 c-102 -106 -138 -169 -154 -266 -5
-36 -19 -96 -30 -135 -11 -38 -23 -113 -26 -165 -9 -149 17 -225 162 -484 84
-148 131 -213 214 -297 109 -109 222 -170 417 -225 84 -24 118 -28 224 -28
145 0 239 17 410 73 210 70 336 139 525 287 181 141 277 275 339 474 44 138
58 218 58 335 1 144 -18 218 -97 380 -35 72 -70 148 -79 169 -30 72 -125 204
-194 266 -170 156 -351 209 -609 179z"/>
<path d="M33386 13085 c-64 -86 -119 -161 -121 -168 -4 -9 1191 -714 1945
-1149 l46 -26 122 203 c67 112 122 207 122 212 0 9 -1957 1074 -1985 1081 -6
2 -65 -67 -129 -153z"/>
<path d="M32680 11880 c-88 -110 -163 -206 -165 -213 -2 -7 318 -232 780 -547
432 -294 785 -538 785 -542 0 -3 -92 -117 -205 -252 l-205 -246 167 -125 c134
-101 169 -123 179 -113 11 11 1052 1451 1068 1477 4 6 -63 46 -161 95 l-168
84 -208 -249 -207 -249 -218 157 c-119 86 -442 319 -717 518 -275 198 -514
371 -532 383 l-32 23 -161 -201z"/>
<path d="M7001 12020 c-157 -22 -324 -97 -462 -208 -46 -38 -115 -87 -154
-110 -203 -120 -347 -277 -448 -488 l-42 -89 -3 -159 c-5 -248 23 -404 102
-571 53 -113 98 -180 230 -343 65 -81 122 -141 161 -169 33 -23 79 -57 103
-74 54 -40 124 -59 222 -59 48 -1 95 -8 130 -20 66 -23 122 -25 215 -5 39 9
117 19 175 24 163 14 257 53 400 169 45 37 99 78 119 91 20 13 73 48 118 78
203 134 319 329 343 572 5 53 14 112 20 131 48 165 1 410 -134 695 -50 106
-56 114 -160 210 -60 55 -133 119 -165 143 -116 89 -283 151 -403 152 -25 0
-73 6 -105 14 -79 20 -185 26 -262 16z m385 -451 c157 -29 270 -122 351 -290
86 -176 111 -295 82 -389 -6 -19 -17 -63 -24 -96 -25 -114 -73 -189 -231 -360
l-93 -100 -188 -67 c-236 -83 -299 -99 -393 -100 -159 -1 -318 81 -392 202
-12 20 -42 60 -65 89 -82 101 -119 200 -129 347 l-7 92 48 92 c103 199 207
309 462 488 114 79 399 125 579 92z"/>
<path d="M31427 10333 l-167 -168 334 -335 334 -335 202 -730 c112 -401 205
-738 208 -748 4 -15 40 16 172 148 l167 167 -124 495 c-68 273 -122 497 -120
499 1 2 216 -33 477 -76 261 -44 486 -80 500 -80 19 0 63 38 189 164 147 148
161 164 140 169 -13 3 -350 78 -749 167 l-725 161 -335 334 -335 335 -168
-167z"/>
<path d="M8085 9540 l-790 -790 165 -165 c91 -91 169 -165 175 -165 5 0 139
129 296 286 l287 287 323 -283 c178 -155 325 -286 327 -291 2 -4 -122 -151
-275 -326 -154 -175 -283 -324 -287 -332 -6 -9 38 -60 155 -177 90 -90 167
-164 170 -164 5 0 1272 1329 1519 1593 l63 68 -169 170 -169 169 -370 -370
c-204 -203 -373 -370 -376 -370 -6 0 -531 595 -558 633 -13 18 10 43 313 346
179 179 326 331 326 336 0 10 -320 335 -330 335 -3 0 -361 -355 -795 -790z"/>
<path d="M29675 7664 c-188 -29 -348 -142 -425 -298 -182 -368 13 -782 400
-852 201 -36 396 21 530 156 135 134 192 329 156 530 -38 212 -183 378 -386
441 -64 20 -214 32 -275 23z"/>
<path d="M10808 7234 c-93 -22 -196 -80 -264 -148 -222 -222 -220 -615 5 -836
111 -109 243 -160 416 -160 170 0 298 51 411 164 114 114 164 241 164 416 0
175 -50 302 -164 415 -115 114 -246 165 -421 164 -49 0 -116 -7 -147 -15z"/>
<path d="M26892 6756 c-178 -71 -202 -83 -199 -101 2 -11 122 -294 267 -630
144 -335 270 -642 280 -681 10 -38 21 -113 25 -165 4 -54 13 -104 22 -118 25
-39 -5 -221 -37 -221 -35 -1 -102 -42 -167 -104 l-70 -66 -164 0 c-90 0 -180
4 -198 10 -44 12 -107 74 -122 117 -5 18 -25 47 -44 66 -25 25 -40 56 -60 122
-20 64 -555 1335 -569 1352 -2 3 -407 -157 -415 -164 -2 -1 109 -268 247 -592
139 -324 268 -634 287 -688 49 -134 114 -266 169 -341 25 -34 46 -70 46 -81 0
-33 55 -96 101 -115 24 -10 69 -31 99 -46 65 -33 140 -50 218 -50 39 0 71 -7
97 -21 32 -16 51 -19 98 -15 59 6 301 80 395 122 99 44 207 129 390 308 l182
179 0 176 c0 210 0 209 -113 511 -78 208 -540 1297 -555 1311 -4 3 -98 -30
-210 -75z"/>
<path d="M13780 6648 c-20 -46 -820 -2131 -820 -2137 0 -3 107 -42 238 -85
130 -43 242 -81 248 -83 8 -3 71 174 174 484 89 268 166 492 171 497 7 8 815
-308 823 -323 2 -3 -71 -208 -161 -455 -90 -247 -160 -453 -156 -457 5 -4 98
-43 208 -87 195 -78 200 -79 208 -59 44 114 737 2048 737 2055 0 10 -408 178
-414 171 -1 -2 -72 -177 -156 -389 -84 -212 -159 -397 -166 -412 l-14 -26
-407 163 c-224 89 -409 167 -410 171 -2 5 71 194 161 419 l164 410 -206 82
c-114 46 -208 83 -209 83 -2 0 -8 -10 -13 -22z"/>
<path d="M24222 5797 c-119 -25 -201 -46 -199 -52 3 -5 134 -491 292 -1080
158 -588 289 -1071 290 -1072 2 -4 409 78 413 82 3 3 -512 1931 -564 2113 -9
28 -18 52 -22 51 -4 -1 -98 -20 -210 -42z"/>
<path d="M17068 5659 c-130 -14 -247 -46 -353 -99 -81 -40 -110 -61 -148 -104
-183 -213 -292 -445 -365 -781 -45 -206 -55 -301 -49 -460 6 -166 28 -261 89
-383 36 -74 53 -94 147 -180 178 -161 310 -237 531 -304 114 -35 266 -47 362
-28 91 17 323 96 392 133 82 43 193 151 281 272 41 56 75 107 75 111 0 14
-413 259 -417 248 -12 -36 -132 -202 -192 -266 -93 -100 -137 -121 -235 -116
-57 2 -81 9 -112 29 -23 15 -60 28 -91 32 -95 11 -183 76 -240 176 -15 26 -39
65 -54 89 -44 69 -61 163 -66 377 l-5 190 36 120 c45 149 110 285 165 347 52
59 160 135 226 161 33 13 94 22 181 28 147 10 213 -1 290 -46 41 -24 94 -78
94 -95 0 -5 25 -39 56 -77 67 -80 106 -158 112 -225 l5 -48 208 0 209 0 0 108
c0 139 -16 264 -41 322 -53 122 -388 363 -637 456 -57 22 -77 24 -220 23 -86
-1 -192 -5 -234 -10z"/>
<path d="M19196 5268 c-3 -40 -22 -521 -41 -1068 -19 -547 -36 -1021 -38
-1052 l-3 -58 248 0 248 0 0 862 c0 474 2 859 6 856 3 -3 95 -383 205 -844
110 -462 202 -847 205 -856 5 -16 24 -18 213 -18 l208 0 246 858 246 857 0
-856 1 -856 203 -42 c111 -23 205 -41 210 -41 4 0 7 524 7 1165 l0 1165 -333
0 -333 0 -204 -780 c-113 -429 -207 -780 -210 -780 -3 0 -98 351 -210 780
l-205 780 -332 0 -331 0 -6 -72z"/>
<path d="M22875 4298 c-236 -22 -431 -41 -432 -42 0 0 18 -95 40 -209 l42
-209 35 5 c19 3 207 22 418 43 l382 38 0 208 0 208 -27 -1 c-16 -1 -221 -19
-458 -41z"/>
</g>
</svg>
